<svg xmlns="http://www.w3.org/2000/svg" viewBox="0 0 1800 1460" width="1800" height="1460"><style>
text{font-family:Manrope,-apple-system,'Segoe UI',Helvetica,Arial,sans-serif;font-size:13px;fill:#1b1f3b}
.s{fill:#6c7088;font-size:12px}.xs{fill:#6c7088;font-size:11px}.h{font-weight:700}.th{font-weight:700;font-size:12px;fill:#6c7088}
.lnk{fill:#526ed3;font-weight:600}.mut{fill:#6c7088}.cap{fill:#526ed3;font-size:12px;font-weight:700}
</style><rect width="1800" height="1460" fill="#f6f6f9"/><rect x="30" y="50" width="560" height="400" rx="20" fill="#f6f6f9" stroke="#e3e4ec"/><text x="30" y="38" class="cap" style="">1. Загрузка доски</text><rect x="44" y="64" width="130" height="34" rx="10" fill="#fff" stroke="#cfd1de"/><text x="56" y="86" class="h" style="font-size:12px">Разработка ▾</text><rect x="480" y="64" width="96" height="34" rx="17" fill="#526ed3"/><text x="528" y="86" class="" style="fill:#fff;font-weight:700;font-size:11px" text-anchor="middle">+ Задача</text><rect x="44.0" y="112" width="172.0" height="324" rx="12" fill="#eef0f5"/><rect x="54.0" y="112" width="152.0" height="3" rx="1.5" fill="#c7c9d6"/><text x="56.0" y="138" class="h" style="font-size:12px">To do</text><rect x="224.0" y="112" width="172.0" height="324" rx="12" fill="#eef0f5"/><rect x="234.0" y="112" width="152.0" height="3" rx="1.5" fill="#526ed3"/><text x="236.0" y="138" class="h" style="font-size:12px">In progress</text><rect x="404.0" y="112" width="172.0" height="324" rx="12" fill="#eef0f5"/><rect x="414.0" y="112" width="152.0" height="3" rx="1.5" fill="#8e5bd9"/><text x="416.0" y="138" class="h" style="font-size:12px">In review</text><circle cx="310.0" cy="270.0" r="22" fill="none" stroke="#526ed3" stroke-width="4" stroke-dasharray="90 50"/><rect x="620" y="50" width="560" height="400" rx="20" fill="#f6f6f9" stroke="#e3e4ec"/><text x="620" y="38" class="cap" style="">2. Задач нет: пустые колонки</text><rect x="634" y="64" width="130" height="34" rx="10" fill="#fff" stroke="#cfd1de"/><text x="646" y="86" class="h" style="font-size:12px">Разработка ▾</text><rect x="1070" y="64" width="96" height="34" rx="17" fill="#526ed3"/><text x="1118" y="86" class="" style="fill:#fff;font-weight:700;font-size:11px" text-anchor="middle">+ Задача</text><rect x="634.0" y="112" width="172.0" height="324" rx="12" fill="#eef0f5"/><rect x="644.0" y="112" width="152.0" height="3" rx="1.5" fill="#c7c9d6"/><text x="646.0" y="138" class="h" style="font-size:12px">To do</text><text x="720.0" y="202" class="mut" style="font-size:11px" text-anchor="middle">Перетащите сюда</text><rect x="814.0" y="112" width="172.0" height="324" rx="12" fill="#eef0f5"/><rect x="824.0" y="112" width="152.0" height="3" rx="1.5" fill="#526ed3"/><text x="826.0" y="138" class="h" style="font-size:12px">In progress</text><text x="900.0" y="202" class="mut" style="font-size:11px" text-anchor="middle">Перетащите сюда</text><rect x="994.0" y="112" width="172.0" height="324" rx="12" fill="#eef0f5"/><rect x="1004.0" y="112" width="152.0" height="3" rx="1.5" fill="#8e5bd9"/><text x="1006.0" y="138" class="h" style="font-size:12px">In review</text><text x="1080.0" y="202" class="mut" style="font-size:11px" text-anchor="middle">Перетащите сюда</text><rect x="1210" y="50" width="560" height="400" rx="20" fill="#f6f6f9" stroke="#e3e4ec"/><text x="1210" y="38" class="cap" style="">3. Роль Viewer: нет DnD и кнопки «+ Задача»</text><rect x="1224" y="64" width="130" height="34" rx="10" fill="#fff" stroke="#cfd1de"/><text x="1236" y="86" class="h" style="font-size:12px">Разработка ▾</text><rect x="1224.0" y="112" width="172.0" height="324" rx="12" fill="#eef0f5"/><rect x="1234.0" y="112" width="152.0" height="3" rx="1.5" fill="#c7c9d6"/><text x="1236.0" y="138" class="h" style="font-size:12px">To do</text><g><rect x="1234.0" y="152" width="152.0" height="127" rx="12" fill="#fff" stroke="#e3e4ec"/><rect x="1246.0" y="162" width="16" height="16" rx="4" fill="#526ed3" fill-opacity="0.18"/><text x="1254.0" y="174" text-anchor="middle" style="font-size:10px;font-weight:800;fill:#3f5bc4">T</text><text x="1268.0" y="174" class="" style="fill:#526ed3;font-size:12px;font-weight:600">PROJ-150</text><rect x="1356.0" y="161" width="18" height="18" rx="5" fill="#e0a100"/><text x="1365.0" y="174" text-anchor="middle" style="font-size:10px;font-weight:800;fill:#1b1f3b">M</text><text x="1246.0" y="200" class="h" style="font-size:13px">Список задач</text><rect x="1246.0" y="219" width="40.0" height="18" rx="9" fill="#eef0fa"/><text x="1253.0" y="232" style="font-size:11px">list</text><text x="1246.0" y="265" class="" style="font-size:11px;fill:#6c7088">20 ноя</text><circle cx="1364.0" cy="261" r="11" fill="#9aa7d8"/><text x="1364.0" y="264.63" text-anchor="middle" style="font-size:8px;font-weight:700;fill:#1b1f3b">МС</text></g><g><rect x="1234.0" y="287" width="152.0" height="101" rx="12" fill="#fff" stroke="#e3e4ec"/><rect x="1246.0" y="297" width="16" height="16" rx="4" fill="#526ed3" fill-opacity="0.18"/><text x="1254.0" y="309" text-anchor="middle" style="font-size:10px;font-weight:800;fill:#3f5bc4">T</text><text x="1268.0" y="309" class="" style="fill:#526ed3;font-size:12px;font-weight:600">PROJ-151</text><rect x="1356.0" y="296" width="18" height="18" rx="5" fill="#4dd269"/><text x="1365.0" y="309" text-anchor="middle" style="font-size:10px;font-weight:800;fill:#1b1f3b">L</text><text x="1246.0" y="335" class="h" style="font-size:13px">Кнопка «Создать»</text><circle cx="1364.0" cy="370" r="11" fill="#9aa7d8"/><text x="1364.0" y="373.63" text-anchor="middle" style="font-size:8px;font-weight:700;fill:#1b1f3b">ЕБ</text></g><rect x="1404.0" y="112" width="172.0" height="324" rx="12" fill="#eef0f5"/><rect x="1414.0" y="112" width="152.0" height="3" rx="1.5" fill="#526ed3"/><text x="1416.0" y="138" class="h" style="font-size:12px">In progress</text><g><rect x="1414.0" y="152" width="152.0" height="127" rx="12" fill="#fff" stroke="#e3e4ec"/><rect x="1426.0" y="162" width="16" height="16" rx="4" fill="#526ed3" fill-opacity="0.18"/><text x="1434.0" y="174" text-anchor="middle" style="font-size:10px;font-weight:800;fill:#3f5bc4">T</text><text x="1448.0" y="174" class="" style="fill:#526ed3;font-size:12px;font-weight:600">PROJ-139</text><rect x="1536.0" y="161" width="18" height="18" rx="5" fill="#f45d48"/><text x="1545.0" y="174" text-anchor="middle" style="font-size:10px;font-weight:800;fill:#1b1f3b">C</text><text x="1426.0" y="200" class="h" style="font-size:13px">DnD карточек</text><rect x="1426.0" y="219" width="33.5" height="18" rx="9" fill="#eef0fa"/><text x="1433.0" y="232" style="font-size:11px">dnd</text><text x="1426.0" y="265" class="" style="font-size:11px;fill:#d03a26;font-weight:700">⏰ 3 ноя</text><circle cx="1544.0" cy="261" r="11" fill="#9aa7d8"/><text x="1544.0" y="264.63" text-anchor="middle" style="font-size:8px;font-weight:700;fill:#1b1f3b">ИП</text></g><rect x="1584.0" y="112" width="172.0" height="324" rx="12" fill="#eef0f5"/><rect x="1594.0" y="112" width="152.0" height="3" rx="1.5" fill="#8e5bd9"/><text x="1596.0" y="138" class="h" style="font-size:12px">In review</text><g><rect x="1594.0" y="152" width="152.0" height="127" rx="12" fill="#fff" stroke="#e3e4ec"/><rect x="1606.0" y="162" width="16" height="16" rx="4" fill="#526ed3" fill-opacity="0.18"/><text x="1614.0" y="174" text-anchor="middle" style="font-size:10px;font-weight:800;fill:#3f5bc4">T</text><text x="1628.0" y="174" class="" style="fill:#526ed3;font-size:12px;font-weight:600">PROJ-137</text><rect x="1716.0" y="161" width="18" height="18" rx="5" fill="#e07b00"/><text x="1725.0" y="174" text-anchor="middle" style="font-size:10px;font-weight:800;fill:#1b1f3b">H</text><text x="1606.0" y="200" class="h" style="font-size:13px">Фильтры</text><rect x="1606.0" y="219" width="59.5" height="18" rx="9" fill="#eef0fa"/><text x="1613.0" y="232" style="font-size:11px">filters</text><circle cx="1724.0" cy="261" r="11" fill="#9aa7d8"/><text x="1724.0" y="264.63" text-anchor="middle" style="font-size:8px;font-weight:700;fill:#1b1f3b">ДТ</text></g><rect x="30" y="520" width="560" height="400" rx="20" fill="#f6f6f9" stroke="#e3e4ec"/><text x="30" y="508" class="cap" style="">4. Варианты карточки: теги, родитель, блокировка, длинное название</text><g><rect x="44.0" y="534" width="260.0" height="127" rx="12" fill="#fff" stroke="#e3e4ec"/><rect x="56.0" y="544" width="16" height="16" rx="4" fill="#526ed3" fill-opacity="0.18"/><text x="64.0" y="556" text-anchor="middle" style="font-size:10px;font-weight:800;fill:#3f5bc4">T</text><text x="78.0" y="556" class="" style="fill:#526ed3;font-size:12px;font-weight:600">PROJ-3</text><rect x="274.0" y="543" width="18" height="18" rx="5" fill="#e07b00"/><text x="283.0" y="556" text-anchor="middle" style="font-size:10px;font-weight:800;fill:#1b1f3b">H</text><text x="56.0" y="582" class="h" style="font-size:13px">Пять тегов: показаны два</text><rect x="56.0" y="601" width="40.0" height="18" rx="9" fill="#eef0fa"/><text x="63.0" y="614" style="font-size:11px">auth</text><rect x="101.0" y="601" width="33.5" height="18" rx="9" fill="#eef0fa"/><text x="108.0" y="614" style="font-size:11px">api</text><rect x="139.5" y="601" width="26" height="18" rx="9" fill="#e3e4ec"/><text x="145.5" y="614" style="font-size:11px;font-weight:600;fill:#6c7088">+3</text><circle cx="282.0" cy="643" r="11" fill="#9aa7d8"/><text x="282.0" y="646.63" text-anchor="middle" style="font-size:8px;font-weight:700;fill:#1b1f3b">МС</text></g><g><rect x="44.0" y="669" width="260.0" height="161" rx="12" fill="#fff" stroke="#e3e4ec"/><rect x="56.0" y="679" width="16" height="16" rx="4" fill="#f45d48" fill-opacity="0.18"/><text x="64.0" y="691" text-anchor="middle" style="font-size:10px;font-weight:800;fill:#c2301c">B</text><text x="78.0" y="691" class="" style="fill:#526ed3;font-size:12px;font-weight:600">PROJ-5</text><rect x="274.0" y="678" width="18" height="18" rx="5" fill="#f45d48"/><text x="283.0" y="691" text-anchor="middle" style="font-size:10px;font-weight:800;fill:#1b1f3b">C</text><text x="56.0" y="717" class="h" style="font-size:13px">Очень длинное название</text><text x="56.0" y="734" class="h" style="font-size:13px">задачи занимает три</text><text x="56.0" y="751" class="h" style="font-size:13px">строки и дальше</text><rect x="56.0" y="770" width="33.5" height="18" rx="9" fill="#eef0fa"/><text x="63.0" y="783" style="font-size:11px">dnd</text><circle cx="282.0" cy="812" r="11" fill="#9aa7d8"/><text x="282.0" y="815.63" text-anchor="middle" style="font-size:8px;font-weight:700;fill:#1b1f3b">АК</text></g><g><rect x="316.0" y="534" width="260.0" height="101" rx="12" fill="#fff" stroke="#e3e4ec"/><rect x="328.0" y="544" width="16" height="16" rx="4" fill="#526ed3" fill-opacity="0.18"/><text x="336.0" y="556" text-anchor="middle" style="font-size:10px;font-weight:800;fill:#3f5bc4">T</text><text x="350.0" y="556" class="" style="fill:#526ed3;font-size:12px;font-weight:600">PROJ-1</text><rect x="546.0" y="543" width="18" height="18" rx="5" fill="#4dd269"/><text x="555.0" y="556" text-anchor="middle" style="font-size:10px;font-weight:800;fill:#1b1f3b">L</text><text x="328.0" y="582" class="h" style="font-size:13px">Без тегов</text><circle cx="554.0" cy="617" r="11" fill="#c7c9d6"/><text x="554.0" y="620.63" text-anchor="middle" style="font-size:8px;font-weight:700;fill:#1b1f3b">ИП</text><text x="328" y="621" class="xs" style="">ИП (деактивирован)</text></g><g><rect x="316.0" y="643" width="260.0" height="127" rx="12" fill="#fff" stroke="#e3e4ec"/><rect x="328.0" y="653" width="16" height="16" rx="4" fill="#526ed3" fill-opacity="0.18"/><text x="336.0" y="665" text-anchor="middle" style="font-size:10px;font-weight:800;fill:#3f5bc4">T</text><text x="350.0" y="665" class="" style="fill:#526ed3;font-size:12px;font-weight:600">PROJ-2</text><rect x="546.0" y="652" width="18" height="18" rx="5" fill="#e0a100"/><text x="555.0" y="665" text-anchor="middle" style="font-size:10px;font-weight:800;fill:#1b1f3b">M</text><text x="328.0" y="691" class="h" style="font-size:13px">Один тег, срок просрочен</text><rect x="328.0" y="710" width="59.5" height="18" rx="9" fill="#eef0fa"/><text x="335.0" y="723" style="font-size:11px">Backend</text><text x="328.0" y="756" class="" style="font-size:11px;fill:#d03a26;font-weight:700">⏰ 3 ноя</text><circle cx="554.0" cy="752" r="11" fill="#9aa7d8"/><text x="554.0" y="755.63" text-anchor="middle" style="font-size:8px;font-weight:700;fill:#1b1f3b">ИП</text></g><g><rect x="316.0" y="778" width="260.0" height="125" rx="12" fill="#fff" stroke="#e3e4ec"/><rect x="328.0" y="788" width="16" height="16" rx="4" fill="#526ed3" fill-opacity="0.18"/><text x="336.0" y="800" text-anchor="middle" style="font-size:10px;font-weight:800;fill:#3f5bc4">T</text><text x="350.0" y="800" class="" style="fill:#526ed3;font-size:12px;font-weight:600">PROJ-9</text><rect x="546.0" y="787" width="18" height="18" rx="5" fill="#e07b00"/><text x="555.0" y="800" text-anchor="middle" style="font-size:10px;font-weight:800;fill:#1b1f3b">H</text><text x="328.0" y="826" class="h" style="font-size:13px">Подзадача блокирована</text><rect x="328.0" y="845" width="61.599999999999994" height="18" rx="9" fill="#ececf2"/><text x="337.0" y="858" style="font-size:10px;font-weight:600;fill:#6c7088">↑ PROJ-4</text><rect x="397.6" y="845" width="96" height="18" rx="9" fill="#f45d48" fill-opacity="0.15"/><text x="406.6" y="858" style="font-size:10px;font-weight:700;fill:#d03a26">⛔ заблокировано</text><text x="328.0" y="889" class="" style="font-size:11px;fill:#6c7088">20 ноя</text></g><rect x="620" y="520" width="560" height="400" rx="20" fill="#f6f6f9" stroke="#e3e4ec"/><text x="620" y="508" class="cap" style="">5. Перетаскивание: карточка поднята, колонка-цель подсвечена</text><rect x="634" y="534" width="130" height="34" rx="10" fill="#fff" stroke="#cfd1de"/><text x="646" y="556" class="h" style="font-size:12px">Разработка ▾</text><rect x="1070" y="534" width="96" height="34" rx="17" fill="#526ed3"/><text x="1118" y="556" class="" style="fill:#fff;font-weight:700;font-size:11px" text-anchor="middle">+ Задача</text><rect x="634.0" y="582" width="172.0" height="324" rx="12" fill="#eef0f5"/><rect x="644.0" y="582" width="152.0" height="3" rx="1.5" fill="#c7c9d6"/><text x="646.0" y="608" class="h" style="font-size:12px">To do</text><g><rect x="644.0" y="622" width="152.0" height="127" rx="12" fill="#fff" stroke="#e3e4ec"/><rect x="656.0" y="632" width="16" height="16" rx="4" fill="#526ed3" fill-opacity="0.18"/><text x="664.0" y="644" text-anchor="middle" style="font-size:10px;font-weight:800;fill:#3f5bc4">T</text><text x="678.0" y="644" class="" style="fill:#526ed3;font-size:12px;font-weight:600">PROJ-150</text><rect x="766.0" y="631" width="18" height="18" rx="5" fill="#e0a100"/><text x="775.0" y="644" text-anchor="middle" style="font-size:10px;font-weight:800;fill:#1b1f3b">M</text><text x="656.0" y="670" class="h" style="font-size:13px">Список задач</text><rect x="656.0" y="689" width="40.0" height="18" rx="9" fill="#eef0fa"/><text x="663.0" y="702" style="font-size:11px">list</text><text x="656.0" y="735" class="" style="font-size:11px;fill:#6c7088">20 ноя</text><circle cx="774.0" cy="731" r="11" fill="#9aa7d8"/><text x="774.0" y="734.63" text-anchor="middle" style="font-size:8px;font-weight:700;fill:#1b1f3b">МС</text></g><g><rect x="644.0" y="757" width="152.0" height="101" rx="12" fill="#fff" stroke="#e3e4ec"/><rect x="656.0" y="767" width="16" height="16" rx="4" fill="#526ed3" fill-opacity="0.18"/><text x="664.0" y="779" text-anchor="middle" style="font-size:10px;font-weight:800;fill:#3f5bc4">T</text><text x="678.0" y="779" class="" style="fill:#526ed3;font-size:12px;font-weight:600">PROJ-151</text><rect x="766.0" y="766" width="18" height="18" rx="5" fill="#4dd269"/><text x="775.0" y="779" text-anchor="middle" style="font-size:10px;font-weight:800;fill:#1b1f3b">L</text><text x="656.0" y="805" class="h" style="font-size:13px">Кнопка «Создать»</text><circle cx="774.0" cy="840" r="11" fill="#9aa7d8"/><text x="774.0" y="843.63" text-anchor="middle" style="font-size:8px;font-weight:700;fill:#1b1f3b">ЕБ</text></g><rect x="814.0" y="582" width="172.0" height="324" rx="12" fill="#eef0f5"/><rect x="824.0" y="582" width="152.0" height="3" rx="1.5" fill="#526ed3"/><text x="826.0" y="608" class="h" style="font-size:12px">In progress</text><g><rect x="824.0" y="622" width="152.0" height="127" rx="12" fill="#fff" stroke="#e3e4ec"/><rect x="836.0" y="632" width="16" height="16" rx="4" fill="#526ed3" fill-opacity="0.18"/><text x="844.0" y="644" text-anchor="middle" style="font-size:10px;font-weight:800;fill:#3f5bc4">T</text><text x="858.0" y="644" class="" style="fill:#526ed3;font-size:12px;font-weight:600">PROJ-139</text><rect x="946.0" y="631" width="18" height="18" rx="5" fill="#f45d48"/><text x="955.0" y="644" text-anchor="middle" style="font-size:10px;font-weight:800;fill:#1b1f3b">C</text><text x="836.0" y="670" class="h" style="font-size:13px">DnD карточек</text><rect x="836.0" y="689" width="33.5" height="18" rx="9" fill="#eef0fa"/><text x="843.0" y="702" style="font-size:11px">dnd</text><text x="836.0" y="735" class="" style="font-size:11px;fill:#d03a26;font-weight:700">⏰ 3 ноя</text><circle cx="954.0" cy="731" r="11" fill="#9aa7d8"/><text x="954.0" y="734.63" text-anchor="middle" style="font-size:8px;font-weight:700;fill:#1b1f3b">ИП</text></g><rect x="994.0" y="582" width="172.0" height="324" rx="12" fill="#eef0f5"/><rect x="1004.0" y="582" width="152.0" height="3" rx="1.5" fill="#8e5bd9"/><text x="1006.0" y="608" class="h" style="font-size:12px">In review</text><g><rect x="1004.0" y="622" width="152.0" height="127" rx="12" fill="#fff" stroke="#e3e4ec"/><rect x="1016.0" y="632" width="16" height="16" rx="4" fill="#526ed3" fill-opacity="0.18"/><text x="1024.0" y="644" text-anchor="middle" style="font-size:10px;font-weight:800;fill:#3f5bc4">T</text><text x="1038.0" y="644" class="" style="fill:#526ed3;font-size:12px;font-weight:600">PROJ-137</text><rect x="1126.0" y="631" width="18" height="18" rx="5" fill="#e07b00"/><text x="1135.0" y="644" text-anchor="middle" style="font-size:10px;font-weight:800;fill:#1b1f3b">H</text><text x="1016.0" y="670" class="h" style="font-size:13px">Фильтры</text><rect x="1016.0" y="689" width="59.5" height="18" rx="9" fill="#eef0fa"/><text x="1023.0" y="702" style="font-size:11px">filters</text><circle cx="1134.0" cy="731" r="11" fill="#9aa7d8"/><text x="1134.0" y="734.63" text-anchor="middle" style="font-size:8px;font-weight:700;fill:#1b1f3b">ДТ</text></g><rect x="994.0" y="582" width="172.0" height="324" rx="12" fill="none" stroke="#526ed3" stroke-width="2" stroke-dasharray="6 5"/><g><rect x="844.4" y="698" width="152.0" height="127" rx="12" fill="#1b1f3b" opacity="0.18"/><rect x="840.4" y="690" width="152.0" height="127" rx="12" fill="#fff" stroke="#e3e4ec"/><rect x="852.4" y="700" width="16" height="16" rx="4" fill="#526ed3" fill-opacity="0.18"/><text x="860.4" y="712" text-anchor="middle" style="font-size:10px;font-weight:800;fill:#3f5bc4">T</text><text x="874.4" y="712" class="" style="fill:#526ed3;font-size:12px;font-weight:600">PROJ-141</text><rect x="962.4" y="699" width="18" height="18" rx="5" fill="#e0a100"/><text x="971.4" y="712" text-anchor="middle" style="font-size:10px;font-weight:800;fill:#1b1f3b">M</text><text x="852.4" y="738" class="h" style="font-size:13px">Диалог причины</text><rect x="852.4" y="757" width="33.5" height="18" rx="9" fill="#eef0fa"/><text x="859.4" y="770" style="font-size:11px">dnd</text><text x="852.4" y="803" class="" style="font-size:11px;fill:#6c7088">15 ноя</text><circle cx="970.4" cy="799" r="11" fill="#9aa7d8"/><text x="970.4" y="802.63" text-anchor="middle" style="font-size:8px;font-weight:700;fill:#1b1f3b">ЕБ</text></g><rect x="1210" y="520" width="560" height="400" rx="20" fill="#f6f6f9" stroke="#e3e4ec"/><text x="1210" y="508" class="cap" style="">6. Перенос в Blocked: диалог причины (Cancelled ставится в карточке)</text><rect x="1224" y="534" width="130" height="34" rx="10" fill="#fff" stroke="#cfd1de"/><text x="1236" y="556" class="h" style="font-size:12px">Разработка ▾</text><rect x="1660" y="534" width="96" height="34" rx="17" fill="#526ed3"/><text x="1708" y="556" class="" style="fill:#fff;font-weight:700;font-size:11px" text-anchor="middle">+ Задача</text><rect x="1224.0" y="582" width="172.0" height="324" rx="12" fill="#eef0f5"/><rect x="1234.0" y="582" width="152.0" height="3" rx="1.5" fill="#c7c9d6"/><text x="1236.0" y="608" class="h" style="font-size:12px">To do</text><g><rect x="1234.0" y="622" width="152.0" height="127" rx="12" fill="#fff" stroke="#e3e4ec"/><rect x="1246.0" y="632" width="16" height="16" rx="4" fill="#526ed3" fill-opacity="0.18"/><text x="1254.0" y="644" text-anchor="middle" style="font-size:10px;font-weight:800;fill:#3f5bc4">T</text><text x="1268.0" y="644" class="" style="fill:#526ed3;font-size:12px;font-weight:600">PROJ-150</text><rect x="1356.0" y="631" width="18" height="18" rx="5" fill="#e0a100"/><text x="1365.0" y="644" text-anchor="middle" style="font-size:10px;font-weight:800;fill:#1b1f3b">M</text><text x="1246.0" y="670" class="h" style="font-size:13px">Список задач</text><rect x="1246.0" y="689" width="40.0" height="18" rx="9" fill="#eef0fa"/><text x="1253.0" y="702" style="font-size:11px">list</text><text x="1246.0" y="735" class="" style="font-size:11px;fill:#6c7088">20 ноя</text><circle cx="1364.0" cy="731" r="11" fill="#9aa7d8"/><text x="1364.0" y="734.63" text-anchor="middle" style="font-size:8px;font-weight:700;fill:#1b1f3b">МС</text></g><g><rect x="1234.0" y="757" width="152.0" height="101" rx="12" fill="#fff" stroke="#e3e4ec"/><rect x="1246.0" y="767" width="16" height="16" rx="4" fill="#526ed3" fill-opacity="0.18"/><text x="1254.0" y="779" text-anchor="middle" style="font-size:10px;font-weight:800;fill:#3f5bc4">T</text><text x="1268.0" y="779" class="" style="fill:#526ed3;font-size:12px;font-weight:600">PROJ-151</text><rect x="1356.0" y="766" width="18" height="18" rx="5" fill="#4dd269"/><text x="1365.0" y="779" text-anchor="middle" style="font-size:10px;font-weight:800;fill:#1b1f3b">L</text><text x="1246.0" y="805" class="h" style="font-size:13px">Кнопка «Создать»</text><circle cx="1364.0" cy="840" r="11" fill="#9aa7d8"/><text x="1364.0" y="843.63" text-anchor="middle" style="font-size:8px;font-weight:700;fill:#1b1f3b">ЕБ</text></g><rect x="1404.0" y="582" width="172.0" height="324" rx="12" fill="#eef0f5"/><rect x="1414.0" y="582" width="152.0" height="3" rx="1.5" fill="#526ed3"/><text x="1416.0" y="608" class="h" style="font-size:12px">In progress</text><g><rect x="1414.0" y="622" width="152.0" height="127" rx="12" fill="#fff" stroke="#e3e4ec"/><rect x="1426.0" y="632" width="16" height="16" rx="4" fill="#526ed3" fill-opacity="0.18"/><text x="1434.0" y="644" text-anchor="middle" style="font-size:10px;font-weight:800;fill:#3f5bc4">T</text><text x="1448.0" y="644" class="" style="fill:#526ed3;font-size:12px;font-weight:600">PROJ-139</text><rect x="1536.0" y="631" width="18" height="18" rx="5" fill="#f45d48"/><text x="1545.0" y="644" text-anchor="middle" style="font-size:10px;font-weight:800;fill:#1b1f3b">C</text><text x="1426.0" y="670" class="h" style="font-size:13px">DnD карточек</text><rect x="1426.0" y="689" width="33.5" height="18" rx="9" fill="#eef0fa"/><text x="1433.0" y="702" style="font-size:11px">dnd</text><text x="1426.0" y="735" class="" style="font-size:11px;fill:#d03a26;font-weight:700">⏰ 3 ноя</text><circle cx="1544.0" cy="731" r="11" fill="#9aa7d8"/><text x="1544.0" y="734.63" text-anchor="middle" style="font-size:8px;font-weight:700;fill:#1b1f3b">ИП</text></g><rect x="1584.0" y="582" width="172.0" height="324" rx="12" fill="#eef0f5"/><rect x="1594.0" y="582" width="152.0" height="3" rx="1.5" fill="#8e5bd9"/><text x="1596.0" y="608" class="h" style="font-size:12px">In review</text><g><rect x="1594.0" y="622" width="152.0" height="127" rx="12" fill="#fff" stroke="#e3e4ec"/><rect x="1606.0" y="632" width="16" height="16" rx="4" fill="#526ed3" fill-opacity="0.18"/><text x="1614.0" y="644" text-anchor="middle" style="font-size:10px;font-weight:800;fill:#3f5bc4">T</text><text x="1628.0" y="644" class="" style="fill:#526ed3;font-size:12px;font-weight:600">PROJ-137</text><rect x="1716.0" y="631" width="18" height="18" rx="5" fill="#e07b00"/><text x="1725.0" y="644" text-anchor="middle" style="font-size:10px;font-weight:800;fill:#1b1f3b">H</text><text x="1606.0" y="670" class="h" style="font-size:13px">Фильтры</text><rect x="1606.0" y="689" width="59.5" height="18" rx="9" fill="#eef0fa"/><text x="1613.0" y="702" style="font-size:11px">filters</text><circle cx="1724.0" cy="731" r="11" fill="#9aa7d8"/><text x="1724.0" y="734.63" text-anchor="middle" style="font-size:8px;font-weight:700;fill:#1b1f3b">ДТ</text></g><rect x="1210" y="520" width="560" height="400" rx="20" fill="#3a3d52" opacity="0.55"/><rect x="1260" y="600" width="460" height="240" rx="18" fill="#fff" stroke="#fff"/><text x="1284" y="638" class="h" style="font-size:16px">Перевести в Blocked</text><rect x="1284" y="656" width="412" height="70" rx="12" fill="#fff" stroke="#d03a26"/><text x="1298" y="676" class="xs" style="">Причина *</text><text x="1298" y="702" class="mut" style="">Что мешает</text><text x="1288" y="744" class="" style="fill:#d03a26;font-size:11px">Укажите причину</text><rect x="1274" y="766" width="130" height="40" rx="20" fill="#ececf2"/><text x="1339" y="790.0" text-anchor="middle" style="fill:#1b1f3b;font-weight:700">Отмена</text><rect x="1424" y="766" width="130" height="40" rx="20" fill="#526ed3"/><text x="1489.0" y="790.0" text-anchor="middle" style="fill:#fff;font-weight:700">Подтвердить</text><rect x="30" y="990" width="560" height="400" rx="20" fill="#f6f6f9" stroke="#e3e4ec"/><text x="30" y="978" class="cap" style="">7. Фильтры активны: карточки отфильтрованы, счётчики показывают найденное</text><rect x="44" y="1004" width="130" height="34" rx="10" fill="#fff" stroke="#cfd1de"/><text x="56" y="1026" class="h" style="font-size:12px">Разработка ▾</text><rect x="480" y="1004" width="96" height="34" rx="17" fill="#526ed3"/><text x="528" y="1026" class="" style="fill:#fff;font-weight:700;font-size:11px" text-anchor="middle">+ Задача</text><rect x="44" y="1046" width="141" height="28" rx="14" fill="#eef0fa" stroke="#526ed3"/><text x="56" y="1065" style="font-size:11px;font-weight:700">Исполнитель · Я ▾</text><rect x="191" y="1046" width="148" height="28" rx="14" fill="#eef0fa" stroke="#526ed3"/><text x="203" y="1065" style="font-size:11px;font-weight:700">Приоритет · High ▾</text><rect x="345" y="1046" width="64" height="28" rx="14" fill="#fff" stroke="#cfd1de"/><text x="357" y="1065" style="font-size:11px;font-weight:500">Теги ▾</text><text x="421" y="1065" class="lnk" style="font-size:11px">Сбросить</text><rect x="44.0" y="1086" width="172.0" height="290" rx="12" fill="#eef0f5"/><rect x="54.0" y="1086" width="152.0" height="3" rx="1.5" fill="#c7c9d6"/><text x="56.0" y="1112" class="h" style="font-size:12px">To do</text><text x="204.0" y="1112" class="s" style="font-size:11px" text-anchor="end">1</text><g><rect x="54.0" y="1126" width="152.0" height="127" rx="12" fill="#fff" stroke="#e3e4ec"/><rect x="66.0" y="1136" width="16" height="16" rx="4" fill="#526ed3" fill-opacity="0.18"/><text x="74.0" y="1148" text-anchor="middle" style="font-size:10px;font-weight:800;fill:#3f5bc4">T</text><text x="88.0" y="1148" class="" style="fill:#526ed3;font-size:12px;font-weight:600">PROJ-150</text><rect x="176.0" y="1135" width="18" height="18" rx="5" fill="#e07b00"/><text x="185.0" y="1148" text-anchor="middle" style="font-size:10px;font-weight:800;fill:#1b1f3b">H</text><text x="66.0" y="1174" class="h" style="font-size:13px">Список задач</text><rect x="66.0" y="1193" width="40.0" height="18" rx="9" fill="#eef0fa"/><text x="73.0" y="1206" style="font-size:11px">list</text><circle cx="184.0" cy="1235" r="11" fill="#9aa7d8"/><text x="184.0" y="1238.63" text-anchor="middle" style="font-size:8px;font-weight:700;fill:#1b1f3b">ИП</text></g><rect x="224.0" y="1086" width="172.0" height="290" rx="12" fill="#eef0f5"/><rect x="234.0" y="1086" width="152.0" height="3" rx="1.5" fill="#526ed3"/><text x="236.0" y="1112" class="h" style="font-size:12px">In progress</text><text x="384.0" y="1112" class="s" style="font-size:11px" text-anchor="end">1</text><g><rect x="234.0" y="1126" width="152.0" height="127" rx="12" fill="#fff" stroke="#e3e4ec"/><rect x="246.0" y="1136" width="16" height="16" rx="4" fill="#526ed3" fill-opacity="0.18"/><text x="254.0" y="1148" text-anchor="middle" style="font-size:10px;font-weight:800;fill:#3f5bc4">T</text><text x="268.0" y="1148" class="" style="fill:#526ed3;font-size:12px;font-weight:600">PROJ-139</text><rect x="356.0" y="1135" width="18" height="18" rx="5" fill="#e07b00"/><text x="365.0" y="1148" text-anchor="middle" style="font-size:10px;font-weight:800;fill:#1b1f3b">H</text><text x="246.0" y="1174" class="h" style="font-size:13px">DnD карточек</text><rect x="246.0" y="1193" width="33.5" height="18" rx="9" fill="#eef0fa"/><text x="253.0" y="1206" style="font-size:11px">dnd</text><text x="246.0" y="1239" class="" style="font-size:11px;fill:#d03a26;font-weight:700">⏰ 3 ноя</text><circle cx="364.0" cy="1235" r="11" fill="#9aa7d8"/><text x="364.0" y="1238.63" text-anchor="middle" style="font-size:8px;font-weight:700;fill:#1b1f3b">ИП</text></g><rect x="404.0" y="1086" width="172.0" height="290" rx="12" fill="#eef0f5"/><rect x="414.0" y="1086" width="152.0" height="3" rx="1.5" fill="#8e5bd9"/><text x="416.0" y="1112" class="h" style="font-size:12px">In review</text><text x="564.0" y="1112" class="s" style="font-size:11px" text-anchor="end">0</text><rect x="620" y="990" width="560" height="400" rx="20" fill="#f6f6f9" stroke="#e3e4ec"/><text x="620" y="978" class="cap" style="">8. Фильтры ничего не нашли</text><rect x="634" y="1004" width="130" height="34" rx="10" fill="#fff" stroke="#cfd1de"/><text x="646" y="1026" class="h" style="font-size:12px">Разработка ▾</text><rect x="1070" y="1004" width="96" height="34" rx="17" fill="#526ed3"/><text x="1118" y="1026" class="" style="fill:#fff;font-weight:700;font-size:11px" text-anchor="middle">+ Задача</text><rect x="634" y="1046" width="141" height="28" rx="14" fill="#eef0fa" stroke="#526ed3"/><text x="646" y="1065" style="font-size:11px;font-weight:700">Исполнитель · Я ▾</text><rect x="781" y="1046" width="148" height="28" rx="14" fill="#eef0fa" stroke="#526ed3"/><text x="793" y="1065" style="font-size:11px;font-weight:700">Приоритет · High ▾</text><rect x="935" y="1046" width="64" height="28" rx="14" fill="#fff" stroke="#cfd1de"/><text x="947" y="1065" style="font-size:11px;font-weight:500">Теги ▾</text><text x="1011" y="1065" class="lnk" style="font-size:11px">Сбросить</text><rect x="634.0" y="1086" width="172.0" height="290" rx="12" fill="#eef0f5"/><rect x="644.0" y="1086" width="152.0" height="3" rx="1.5" fill="#c7c9d6"/><text x="646.0" y="1112" class="h" style="font-size:12px">To do</text><text x="794.0" y="1112" class="s" style="font-size:11px" text-anchor="end">0</text><rect x="814.0" y="1086" width="172.0" height="290" rx="12" fill="#eef0f5"/><rect x="824.0" y="1086" width="152.0" height="3" rx="1.5" fill="#526ed3"/><text x="826.0" y="1112" class="h" style="font-size:12px">In progress</text><text x="974.0" y="1112" class="s" style="font-size:11px" text-anchor="end">0</text><rect x="994.0" y="1086" width="172.0" height="290" rx="12" fill="#eef0f5"/><rect x="1004.0" y="1086" width="152.0" height="3" rx="1.5" fill="#8e5bd9"/><text x="1006.0" y="1112" class="h" style="font-size:12px">In review</text><text x="1154.0" y="1112" class="s" style="font-size:11px" text-anchor="end">0</text><text x="900.0" y="1216" class="h" style="font-size:14px" text-anchor="middle">Ничего не найдено</text><text x="900.0" y="1238" class="s" style="" text-anchor="middle">Измените поиск или фильтры</text><rect x="830.0" y="1258" width="140" height="36" rx="18" fill="#ececf2"/><text x="900.0" y="1280.0" text-anchor="middle" style="fill:#1b1f3b;font-weight:700">Сбросить</text><text x="1210" y="978" class="cap" style="">9. Доска не найдена или удалена</text><rect x="1210" y="990" width="560" height="400" rx="20" fill="#f6f6f9" stroke="#e3e4ec"/><text x="1490" y="1160" text-anchor="middle" class="h" style="font-size:14px">Доска не найдена или удалена</text><rect x="1400" y="1206" width="180" height="40" rx="20" fill="#526ed3"/><text x="1490" y="1230" text-anchor="middle" class="" style="fill:#fff;font-weight:700">Открыть первую доску</text></svg>