<svg xmlns="http://www.w3.org/2000/svg" viewBox="0 0 1500 780" width="1500" height="780"><style>
text{font-family:Manrope,-apple-system,'Segoe UI',Helvetica,Arial,sans-serif;font-size:13px;fill:#1b1f3b}
.s{fill:#6c7088;font-size:12px}.xs{fill:#6c7088;font-size:11px}.h{font-weight:700}.th{font-weight:700;font-size:12px;fill:#6c7088}
.lnk{fill:#526ed3;font-weight:600}.mut{fill:#6c7088}.cap{fill:#526ed3;font-size:12px;font-weight:700}
</style><rect width="1500" height="780" fill="#f6f6f9"/><rect width="1500" height="56" fill="#fff"/><line x1="0" y1="56" x2="1500" y2="56" stroke="#e3e4ec"/><text x="24" y="35" class="h" style="font-size:15px">PROJ · Название проекта ▾</text><text x="300" y="35" class="" style="font-size:16px">⚙</text><text x="1380" y="35" class="" style="">🔔 <tspan class='s'>3</tspan></text><circle cx="1460" cy="28" r="15" fill="#9aa7d8"/><text x="1460" y="32.95" text-anchor="middle" style="font-size:12px;font-weight:700;fill:#1b1f3b">ЕБ</text><rect x="24" y="76" width="240" height="176" rx="16" fill="#fff" stroke="#e3e4ec"/><text x="44" y="106" class="h" style="font-size:15px">Настройки проекта</text><rect x="36" y="124" width="216" height="36" rx="10" fill="#eef0fa" stroke="#eef0fa"/><text x="52" y="147" class="h" style="">Общие</text><text x="52" y="189" class="" style="">Направления</text><text x="52" y="231" class="" style="">Теги</text><rect x="284" y="76" width="1192" height="402" rx="16" fill="#fff" stroke="#e3e4ec"/><text x="312" y="116" class="h" style="font-size:20px">Общие</text><rect x="312" y="148" width="520" height="48" rx="12" fill="#fff" stroke="#cfd1de"/><text x="326" y="165" class="xs" style="">Название проекта *</text><text x="326" y="185" class="" style="">Название проекта</text><rect x="312" y="216" width="520" height="48" rx="12" fill="#f6f6f9" stroke="#e3e4ec"/><text x="326" y="233" class="xs" style="">Ключ</text><text x="326" y="253" class="mut" style="">PROJ</text><text x="802" y="250" class="s" style="">🔒</text><text x="852" y="246" class="xs" style="">Ключ задаётся при создании проекта и не меняется</text><rect x="312" y="284" width="520" height="110" rx="12" fill="#fff" stroke="#cfd1de"/><text x="326" y="301" class="xs" style="">Описание</text><text x="326" y="325" class="" style="">Таск-менеджер для учебной команды.</text><rect x="312" y="414" width="150" height="40" rx="20" fill="#c9d1f0"/><text x="387.0" y="438.0" text-anchor="middle" style="fill:#fff;font-weight:700">Сохранить</text><text x="482" y="439" class="xs" style="">кнопка активна, когда есть изменения</text><text x="284" y="520" class="cap" style="fill:#526ed3">1. Загрузка формы</text><rect x="284" y="532" width="640" height="200" rx="16" fill="#fff" stroke="#e3e4ec"/><g opacity="0.35"><text x="312" y="572" class="h" style="font-size:20px">Общие</text><rect x="312" y="592" width="520" height="48" rx="12" fill="#fff" stroke="#cfd1de"/><rect x="312" y="652" width="520" height="48" rx="12" fill="#f6f6f9" stroke="#e3e4ec"/></g><circle cx="604" cy="632" r="22" fill="none" stroke="#526ed3" stroke-width="4" stroke-dasharray="88 50.6"/></svg>