<svg xmlns="http://www.w3.org/2000/svg" viewBox="0 0 1500 1340" width="1500" height="1340"><style>
text{font-family:Manrope,-apple-system,'Segoe UI',Helvetica,Arial,sans-serif;font-size:13px;fill:#1b1f3b}
.s{fill:#6c7088;font-size:12px}.xs{fill:#6c7088;font-size:11px}.h{font-weight:700}.th{font-weight:700;font-size:12px;fill:#6c7088}
.lnk{fill:#526ed3;font-weight:600}.mut{fill:#9a9db0}.cap{fill:#526ed3;font-size:12px;font-weight:700}
</style><rect width="1500" height="1340" fill="#f6f6f9"/><rect width="1500" height="56" fill="#fff"/><line x1="0" y1="56" x2="1500" y2="56" stroke="#e3e4ec"/><text x="24" y="35" class="h" style="font-size:15px">PROJ · Название проекта ▾</text><text x="300" y="35" class="" style="font-size:16px">⚙</text><text x="1380" y="35" class="" style="">🔔 <tspan class='s'>3</tspan></text><circle cx="1460" cy="28" r="15" fill="#6b7aa8"/><text x="1460" y="32.95" text-anchor="middle" style="font-size:12px;font-weight:700;fill:#fff">ЕБ</text><rect x="24" y="76" width="240" height="260" rx="16" fill="#fff" stroke="#e3e4ec"/><text x="44" y="106" class="h" style="font-size:15px">Настройки проекта</text><text x="52" y="147" class="" style="">Общие</text><text x="52" y="189" class="" style="">Статусы</text><rect x="36" y="208" width="216" height="36" rx="10" fill="#eef0fa" stroke="#eef0fa"/><text x="52" y="231" class="h" style="">Доски</text><text x="52" y="273" class="" style="">Направления</text><text x="52" y="315" class="" style="">Теги</text><rect x="284" y="76" width="1192" height="576" rx="16" fill="#fff" stroke="#e3e4ec"/><text x="312" y="116" class="h" style="font-size:20px">Доски</text><rect x="1349" y="92" width="103" height="40" rx="20" fill="#526ed3"/><text x="1400.5" y="116.0" text-anchor="middle" style="fill:#fff;font-weight:700">+ Доска</text><text x="312" y="148" class="s" style="">Доска — колонки (статусы) и базовый фильтр. Доски в переключателе видов идут в порядке создания.</text><rect x="312" y="168" width="1136" height="34" fill="#f6f6f9"/><text x="332" y="190" class="th" style="">Название</text><text x="532" y="190" class="th" style="">Колонки</text><text x="1052" y="190" class="th" style="">Базовый фильтр</text><text x="332" y="238" class="h" style="">Планирование</text><text x="532" y="238" class="" style="font-size:12px">Backlog → PBR → Plan → To do (4)</text><text x="1052" y="238" class="mut" style="">Без фильтра</text><text x="1358" y="238" class="s" style="font-size:15px">✎</text><text x="1398" y="238" class="s" style="font-size:14px">🗑</text><line x1="312" y1="262" x2="1448" y2="262" stroke="#eeeef4"/><text x="332" y="298" class="h" style="">Разработка</text><text x="532" y="298" class="" style="font-size:12px">To do → Reopened → In progress → In review → In test → For r…</text><text x="1052" y="298" class="mut" style="">Без фильтра</text><text x="1358" y="298" class="s" style="font-size:15px">✎</text><text x="1398" y="298" class="s" style="font-size:14px">🗑</text><line x1="312" y1="322" x2="1448" y2="322" stroke="#eeeef4"/><text x="332" y="358" class="h" style="">Frontend</text><text x="532" y="358" class="" style="font-size:12px">To do → In progress → In review → Done (4)</text><text x="1052" y="358" class="" style="">Направление: Frontend</text><text x="1358" y="358" class="s" style="font-size:15px">✎</text><text x="1398" y="358" class="s" style="font-size:14px">🗑</text><line x1="312" y1="382" x2="1448" y2="382" stroke="#eeeef4"/><text x="332" y="418" class="h" style="">Backend</text><text x="532" y="418" class="" style="font-size:12px">To do → In progress → In review → Done (4)</text><text x="1052" y="418" class="" style="">Направление: Backend</text><text x="1358" y="418" class="s" style="font-size:15px">✎</text><text x="1398" y="418" class="s" style="font-size:14px">🗑</text><line x1="312" y1="442" x2="1448" y2="442" stroke="#eeeef4"/><text x="312" y="472" class="xs" style="">Последнюю доску удалить нельзя.</text><rect x="0" y="700" width="1500" height="640" fill="#3a3d52"/><rect x="24" y="760" width="924" height="568" rx="20" fill="#fff" stroke="#fff"/><text x="52" y="804" class="h" style="font-size:18px">Доска «Frontend»</text><text x="908" y="802" class="s" style="font-size:16px">✕</text><rect x="52" y="830" width="820" height="48" rx="12" fill="#fff" stroke="#cfd1de"/><text x="66" y="847" class="xs" style="">Название *</text><text x="66" y="867" class="" style="">Frontend</text><text x="52" y="908" class="h" style="">Колонки</text><text x="130" y="908" class="xs" style="">порядок слева направо, перетащите, чтобы изменить</text><rect x="52" y="920" width="820" height="40" rx="10" fill="#fff" stroke="#e3e4ec"/><text x="70" y="946" class="s" style="">⠿</text><rect x="100" y="929" width="57" height="22" rx="11" fill="#c7c9d6" fill-opacity="0.16"/><circle cx="111" cy="940" r="3.5" fill="#c7c9d6"/><text x="120" y="944" style="font-size:12px;font-weight:600">To do</text><text x="840" y="946" class="s" style="">✕</text><rect x="52" y="966" width="820" height="40" rx="10" fill="#fff" stroke="#e3e4ec"/><text x="70" y="992" class="s" style="">⠿</text><rect x="100" y="975" width="99" height="22" rx="11" fill="#526ed3" fill-opacity="0.16"/><circle cx="111" cy="986" r="3.5" fill="#526ed3"/><text x="120" y="990" style="font-size:12px;font-weight:600">In progress</text><text x="840" y="992" class="s" style="">✕</text><rect x="52" y="1012" width="820" height="40" rx="10" fill="#fff" stroke="#e3e4ec"/><text x="70" y="1038" class="s" style="">⠿</text><rect x="100" y="1021" width="85" height="22" rx="11" fill="#8e5bd9" fill-opacity="0.16"/><circle cx="111" cy="1032" r="3.5" fill="#8e5bd9"/><text x="120" y="1036" style="font-size:12px;font-weight:600">In review</text><text x="840" y="1038" class="s" style="">✕</text><rect x="52" y="1058" width="820" height="40" rx="10" fill="#fff" stroke="#e3e4ec"/><text x="70" y="1084" class="s" style="">⠿</text><rect x="100" y="1067" width="50" height="22" rx="11" fill="#4dd269" fill-opacity="0.16"/><circle cx="111" cy="1078" r="3.5" fill="#4dd269"/><text x="120" y="1082" style="font-size:12px;font-weight:600">Done</text><text x="840" y="1084" class="s" style="">✕</text><rect x="52" y="1104" width="300" height="40" rx="10" fill="#fff" stroke="#cfd1de"/><text x="68" y="1130" class="lnk" style="">+ Добавить колонку</text><text x="330" y="1130" class="s" style="">▾</text><text x="52" y="1168" class="h" style="">Базовый фильтр</text><text x="180" y="1168" class="xs" style="">карточки доски всегда подчиняются ему; пользователь может сузить выбор</text><rect x="52" y="1182" width="136.4" height="36" rx="18" fill="#fff" stroke="#cfd1de"/><text x="68" y="1205" style="font-weight:500">Исполнитель</text><text x="168.4" y="1205" class="s" style="">▾</text><rect x="196.4" y="1182" width="102.80000000000001" height="36" rx="18" fill="#fff" stroke="#cfd1de"/><text x="212.4" y="1205" style="font-weight:500">Ревьюер</text><text x="279.20000000000005" y="1205" class="s" style="">▾</text><rect x="307.20000000000005" y="1182" width="119.60000000000001" height="36" rx="18" fill="#fff" stroke="#cfd1de"/><text x="323.20000000000005" y="1205" style="font-weight:500">Приоритет</text><text x="406.80000000000007" y="1205" class="s" style="">▾</text><rect x="434.80000000000007" y="1182" width="69.2" height="36" rx="18" fill="#fff" stroke="#cfd1de"/><text x="450.80000000000007" y="1205" style="font-weight:500">Тип</text><text x="484.00000000000006" y="1205" class="s" style="">▾</text><rect x="512.0000000000001" y="1182" width="228.8" height="36" rx="18" fill="#eef0fa" stroke="#526ed3"/><text x="528.0000000000001" y="1205" style="font-weight:700">Направление · Frontend</text><text x="720.8000000000002" y="1205" class="s" style="">▾</text><rect x="748.8000000000002" y="1182" width="77.6" height="36" rx="18" fill="#fff" stroke="#cfd1de"/><text x="764.8000000000002" y="1205" style="font-weight:500">Теги</text><text x="806.4000000000002" y="1205" class="s" style="">▾</text><rect x="52" y="1242" width="300" height="48" rx="12" fill="#fff" stroke="#cfd1de"/><text x="66" y="1259" class="xs" style="">Окно Done: закрытые за последние (дней)</text><text x="66" y="1279" class="" style="">14</text><rect x="660" y="1252" width="100" height="40" rx="20" fill="#ececf2"/><text x="710.0" y="1276.0" text-anchor="middle" style="fill:#1b1f3b;font-weight:700">Отмена</text><rect x="772" y="1252" width="100" height="40" rx="20" fill="#526ed3"/><text x="822.0" y="1276.0" text-anchor="middle" style="fill:#fff;font-weight:700">Сохранить</text><text x="24" y="748" class="cap" style="fill:#c8cbe0">Диалог доски: создание и правка (одно окно)</text><rect x="972" y="760" width="430" height="240" rx="20" fill="#fff" stroke="#fff"/><text x="1000" y="804" class="h" style="font-size:18px">Удалить доску «Backend»?</text><text x="1362" y="802" class="s" style="font-size:16px">✕</text><text x="1000" y="844" class="" style="">Доска будет удалена. Задачи останутся в проекте.</text><rect x="1000" y="900" width="160" height="40" rx="20" fill="#ececf2"/><text x="1080.0" y="924.0" text-anchor="middle" style="fill:#1b1f3b;font-weight:700">Отмена</text><rect x="1184" y="900" width="160" height="40" rx="20" fill="#526ed3"/><text x="1264.0" y="924.0" text-anchor="middle" style="fill:#fff;font-weight:700">Удалить</text><text x="972" y="748" class="cap" style="fill:#c8cbe0">Удаление доски</text></svg>