<svg xmlns="http://www.w3.org/2000/svg" viewBox="0 0 1560 470" width="1560" height="470"><style>
text{font-family:Manrope,-apple-system,'Segoe UI',Helvetica,Arial,sans-serif;font-size:13px;fill:#1b1f3b}
.s{fill:#6c7088;font-size:12px}.xs{fill:#6c7088;font-size:11px}.h{font-weight:700}.th{font-weight:700;font-size:12px;fill:#6c7088}
.w{fill:#fff}.ac{fill:#526ed3}.lnk{fill:#526ed3}.red{fill:#e4513a}.mut{fill:#9a9db0}
.ann{fill:#526ed3;font-size:11px;font-weight:600}
</style><rect width="1560" height="470" fill="#f6f6f9"/><rect width="1560" height="470" fill="#3a3d52" opacity="0.92"/><rect x="24" y="40" width="350" height="340" rx="20" fill="#fff" stroke="#fff" /><text class="h" x="48" y="82" style="font-size:18px">Новый эпик</text><text x="342" y="80" class="s" style="font-size:16px">✕</text><rect x="48" y="104" width="302" height="48" rx="12" fill="#fff" stroke="#cfd1de" /><text class="xs" x="62" y="121">Название *</text><text class="mut" x="62" y="141">Например, Авторизация</text><rect x="48" y="168" width="302" height="48" rx="12" fill="#fff" stroke="#cfd1de" /><text class="xs" x="62" y="185">К дате</text><text class="mut" x="62" y="205">дд.мм.гггг</text><text x="322" y="198" style="font-size:14px">📅</text><rect x="48" y="232" width="302" height="48" rx="12" fill="#fff" stroke="#cfd1de" /><text class="xs" x="62" y="249">Assignee</text><text class="mut" x="62" y="269">Не назначен</text><text x="326" y="262">▾</text><rect x="48" y="304" width="143" height="40" rx="20" fill="#ececf2"/><text x="119.5" y="329" text-anchor="middle" style="font-weight:700">Отмена</text><rect x="207" y="304" width="143" height="40" rx="20" fill="#c9d1f0"/><text x="278.5" y="329" text-anchor="middle" style="fill:#fff;font-weight:700">Создать</text><text class="w" x="24" y="412" style="fill:#fff;font-weight:700;font-size:13px">1. Пустой: «Создать» неактивна</text><rect x="404" y="40" width="350" height="340" rx="20" fill="#fff" stroke="#fff" /><text class="h" x="428" y="82" style="font-size:18px">Новый эпик</text><text x="722" y="80" class="s" style="font-size:16px">✕</text><rect x="428" y="104" width="302" height="48" rx="12" fill="#fff" stroke="#f45d48" /><text class="xs" x="442" y="121">Название *</text><text class="mut" x="442" y="141">Например, Авторизация</text><text x="430" y="168" style="fill:#f45d48;font-size:12px">Введите название эпика</text><rect x="428" y="188" width="302" height="48" rx="12" fill="#fff" stroke="#cfd1de" /><text class="xs" x="442" y="205">К дате</text><text class="mut" x="442" y="225">дд.мм.гггг</text><text x="702" y="218" style="font-size:14px">📅</text><rect x="428" y="252" width="302" height="48" rx="12" fill="#fff" stroke="#cfd1de" /><text class="xs" x="442" y="269">Assignee</text><text class="mut" x="442" y="289">Не назначен</text><text x="706" y="282">▾</text><rect x="428" y="324" width="143" height="40" rx="20" fill="#ececf2"/><text x="499.5" y="349" text-anchor="middle" style="font-weight:700">Отмена</text><rect x="587" y="324" width="143" height="40" rx="20" fill="#c9d1f0"/><text x="658.5" y="349" text-anchor="middle" style="fill:#fff;font-weight:700">Создать</text><text class="w" x="404" y="412" style="fill:#fff;font-weight:700;font-size:13px">2. Ошибка: пустое название</text><rect x="784" y="40" width="350" height="340" rx="20" fill="#fff" stroke="#fff" /><text class="h" x="808" y="82" style="font-size:18px">Новый эпик</text><text x="1102" y="80" class="s" style="font-size:16px">✕</text><rect x="808" y="104" width="302" height="48" rx="12" fill="#fff" stroke="#cfd1de" /><text class="xs" x="822" y="121">Название *</text><text x="822" y="141">Авторизация</text><rect x="808" y="168" width="302" height="48" rx="12" fill="#fff" stroke="#cfd1de" /><text class="xs" x="822" y="185">К дате</text><text x="822" y="205">30.11.2026</text><text x="1082" y="198" style="font-size:14px">📅</text><rect x="808" y="232" width="302" height="48" rx="12" fill="#fff" stroke="#cfd1de" /><text class="xs" x="822" y="249">Assignee</text><text x="848" y="269">Анна К.</text><text x="1086" y="262">▾</text><circle cx="834" cy="263" r="9" fill="#9aa7d8"/><text class="w" x="834" y="267" text-anchor="middle" style="font-size:7px;font-weight:700;fill:#fff">АК</text><rect x="808" y="304" width="143" height="40" rx="20" fill="#ececf2"/><text x="879.5" y="329" text-anchor="middle" style="font-weight:700">Отмена</text><rect x="967" y="304" width="143" height="40" rx="20" fill="#526ed3"/><text x="1038.5" y="329" text-anchor="middle" style="fill:#fff;font-weight:700">Создать</text><text class="w" x="784" y="412" style="fill:#fff;font-weight:700;font-size:13px">3. Заполнен: «Создать» активна</text><rect x="1164" y="40" width="350" height="340" rx="20" fill="#fff" stroke="#fff" /><text class="h" x="1188" y="82" style="font-size:18px">Новый эпик</text><text x="1482" y="80" class="s" style="font-size:16px">✕</text><rect x="1188" y="104" width="302" height="48" rx="12" fill="#fff" stroke="#cfd1de" /><text class="xs" x="1202" y="121">Название *</text><text x="1202" y="141">Авторизация</text><rect x="1188" y="168" width="302" height="48" rx="12" fill="#fff" stroke="#cfd1de" /><text class="xs" x="1202" y="185">К дате</text><text x="1202" y="205">30.11.2026</text><text x="1462" y="198" style="font-size:14px">📅</text><rect x="1188" y="232" width="302" height="48" rx="12" fill="#fff" stroke="#cfd1de" /><text class="xs" x="1202" y="249">Assignee</text><text x="1228" y="269">Анна К.</text><text x="1466" y="262">▾</text><circle cx="1214" cy="263" r="9" fill="#9aa7d8"/><text class="w" x="1214" y="267" text-anchor="middle" style="font-size:7px;font-weight:700;fill:#fff">АК</text><rect x="1188" y="304" width="143" height="40" rx="20" fill="#ececf2"/><text x="1259.5" y="329" text-anchor="middle" style="font-weight:700">Отмена</text><rect x="1347" y="304" width="143" height="40" rx="20" fill="#526ed3"/><text x="1418.5" y="329" text-anchor="middle" style="fill:#fff;font-weight:700">Создать</text><rect x="1164" y="40" width="350" height="340" rx="20" fill="#fff" fill-opacity="0.6"/><circle cx="1339" cy="210" r="20" fill="none" stroke="#526ed3" stroke-width="4" stroke-dasharray="80 46"/><text class="w" x="1164" y="412" style="fill:#fff;font-weight:700;font-size:13px">4. Отправка: индикатор поверх диалога</text></svg>